HIERARCHY
ROOT Hips
{
    OFFSET 0.0 0.0 0.0
    CHANNELS 6 Xposition Yposition Zposition Zrotation Xrotation Yrotation
    JOINT Spine
    {
        OFFSET 0.0 5.0 0.0
        CHANNELS 3 Zrotation Xrotation Yrotation
        JOINT Chest
        {
            OFFSET 0.0 5.0 0.0
            CHANNELS 3 Zrotation Xrotation Yrotation
            JOINT Neck
            {
                OFFSET 0.0 8.0 0.0
                CHANNELS 3 Zrotation Xrotation Yrotation
                JOINT Head
                {
                    OFFSET 0.0 5.0 0.0
                    CHANNELS 3 Zrotation Xrotation Yrotation
                    End Site
                    {
                        OFFSET 0.0 3.0 0.0
                    }
                }
            }
            JOINT LeftShoulder
            {
                OFFSET -5.0 0.0 0.0
                CHANNELS 3 Zrotation Xrotation Yrotation
                JOINT LeftArm
                {
                    OFFSET 0.0 -10.0 0.0
                    CHANNELS 3 Zrotation Xrotation Yrotation
                    JOINT LeftForeArm
                    {
                        OFFSET 0.0 -10.0 0.0
                        CHANNELS 3 Zrotation Xrotation Yrotation
                        End Site
                        {
                            OFFSET 0.0 -3.0 0.0
                        }
                    }
                }
            }
        }
    }
}

MOTION
Frames: 22
Frame Time: 0.033333
960.000000 445.000000 88.348433 0.000000 0.000000 0.000000 0.000000 0.000000 0.000000 23.025492 -9.788123 0.000000 180.000000 -8.877776 0.000000 21.801409 10.755053 -0.000000 158.198591 -2.232659 30.000000 15.945396 5.208075 0.000000 18.000000 -0.233927 0.000000
1691.525230 140.756605 107.527936 0.000000 0.000000 0.000000 0.000000 0.000000 0.000000 -163.376529 -7.148210 4.973798 16.623471 5.778657 4.973798 -171.853121 -3.452001 3.759997 99.744051 13.228449 29.763441 -171.126653 -3.597429 -3.759997 0.673538 0.477143 0.313953
1636.048050 128.802021 105.108630 0.000000 0.000000 0.000000 0.000000 0.000000 0.000000 157.904128 -19.980322 9.635073 -22.095872 37.371605 9.635073 -171.936471 -4.861224 7.460697 -143.675701 -4.051943 29.057495 -173.500805 -4.060530 -7.460697 0.570999 0.549494 0.626666
1578.156967 80.474526 108.000288 0.000000 0.000000 0.000000 0.000000 0.000000 0.000000 -139.519796 4.478077 13.690942 40.480204 -16.223918 13.690942 -174.507724 -3.118863 11.043737 119.111399 -2.136545 27.893295 -173.607258 -4.168992 -11.043737 0.461920 0.496548 0.936907
960.418757 444.998421 123.281620 0.000000 0.000000 0.000000 0.000000 0.000000 0.000000 25.077893 -32.311757 16.886559 180.000000 0.246197 16.886559 23.861935 2.517011 14.452610 156.138065 -1.808294 26.289200 17.903699 -0.873406 -14.452610 18.000000 0.871190 1.243449
960.523360 444.997533 126.226446 0.000000 0.000000 0.000000 0.000000 0.000000 0.000000 25.638906 -22.048558 19.021130 180.000000 20.436439 19.021130 24.425035 -7.569018 17.633558 155.574965 7.956211 24.270510 18.452907 4.393615 -17.633558 18.000000 0.138356 1.545085
960.627905 444.996447 133.473436 0.000000 0.000000 0.000000 0.000000 0.000000 0.000000 26.219073 15.525832 19.960535 180.000000 5.579007 19.960535 25.006291 -10.039156 20.536413 154.993709 9.744700 21.869059 19.024920 0.006376 -20.536413 18.000000 -0.869310 1.840623
1126.242828 420.359820 133.069971 0.000000 0.000000 0.000000 0.000000 0.000000 0.000000 31.410514 -0.721578 19.645745 -148.589486 -4.698780 19.645745 32.280463 2.448963 23.115397 -131.603972 0.073334 19.122720 45.585331 -1.507814 -23.115397 -13.449727 0.214443 2.128896
1257.895088 650.549197 137.199273 0.000000 0.000000 0.000000 0.000000 0.000000 0.000000 25.073180 -15.043274 18.096541 -154.926820 13.002256 18.096541 46.260945 2.181759 25.329838 -154.651428 -4.994194 16.074804 27.339487 5.066460 -25.329838 -13.619892 0.448245 2.408768
960.941083 444.992008 153.216659 0.000000 0.000000 0.000000 0.000000 0.000000 0.000000 28.072001 -9.063865 15.410265 180.000000 15.948760 15.410265 26.849221 -9.694215 27.144812 153.150779 9.798451 12.773379 20.864045 -6.043676 -27.144812 18.000000 0.547880 2.679134
1163.815842 547.748709 153.246752 0.000000 0.000000 0.000000 0.000000 0.000000 0.000000 117.162728 3.941525 11.755705 -62.837272 -3.889005 11.755705 102.363764 -3.792414 28.531695 -47.376450 -5.504520 9.270510 104.768601 0.303852 -28.531695 -6.003489 0.542833 2.938926
961.149372 444.988063 138.878274 0.000000 0.000000 0.000000 0.000000 0.000000 0.000000 29.395983 -9.425211 7.362491 180.000000 5.423993 7.362491 28.146217 -10.191341 29.468618 151.853783 8.566215 5.621439 22.170006 3.788596 -29.468618 18.000000 -0.741036 3.187120
1136.717377 590.104480 152.915645 0.000000 0.000000 0.000000 0.000000 0.000000 0.000000 115.752126 -1.701474 2.506665 -64.247874 -2.539624 2.506665 73.638146 -2.472877 29.940802 -21.842452 1.383355 1.883716 75.369282 -5.889516 -29.940802 -6.767207 -0.020648 3.422736
1163.079758 634.077559 154.274350 0.000000 0.000000 0.000000 0.000000 0.000000 0.000000 132.174340 -4.290366 -2.506665 -47.825660 0.410649 -2.506665 94.255711 6.295710 29.940802 -149.364979 -6.728208 -1.883716 30.021641 5.812311 -29.940802 -5.096180 -0.403439 3.644843
961.460830 444.980668 136.843838 0.000000 0.000000 0.000000 0.000000 0.000000 0.000000 31.497152 17.641278 -7.362491 180.000000 -11.885178 -7.362491 30.152455 8.498187 29.468618 149.847545 15.137794 -5.621439 24.175589 -4.758016 -29.468618 18.000000 -0.431611 3.852566
1097.449951 565.089898 140.006196 0.000000 0.000000 0.000000 0.000000 0.000000 0.000000 -119.219568 -6.551904 -11.755705 60.780432 8.007827 -11.755705 -150.180642 -7.410820 28.531695 48.804955 0.839896 -9.270510 -149.874178 -6.034025 -28.531695 2.713854 0.571930 4.045085
1114.140244 528.302071 146.839512 0.000000 0.000000 0.000000 0.000000 0.000000 0.000000 -142.671523 0.674575 -15.410265 37.328477 -1.546094 -15.410265 -177.395681 -2.936469 27.144812 34.687329 2.730780 -12.773379 161.894167 -1.303157 -27.144812 -0.910956 -0.152091 4.221640
1116.433640 479.728639 150.874773 0.000000 0.000000 0.000000 0.000000 0.000000 0.000000 -102.267481 -14.506115 -18.096541 77.732519 2.926681 -18.096541 -163.695626 4.772335 25.329838 38.575767 2.256244 -16.074804 -176.001122 1.017106 -25.329838 0.706594 -0.118355 4.381533
1135.931282 466.493965 154.854962 0.000000 0.000000 0.000000 0.000000 0.000000 0.000000 -112.868406 7.739893 -19.645745 67.131594 -1.341521 -19.645745 -159.517862 1.801245 23.115397 36.204678 -2.850323 -19.122720 -154.426613 -5.515356 -23.115397 2.428729 0.474110 4.524135
1141.618767 467.420679 136.923216 0.000000 0.000000 0.000000 0.000000 0.000000 0.000000 -123.086385 10.948554 -19.960535 56.913615 -6.267289 -19.960535 -154.885724 0.588559 20.536413 36.481623 -1.412600 -21.869059 -153.965441 -5.831326 -20.536413 2.446728 0.534026 4.648882
1150.647926 469.370956 153.386416 0.000000 0.000000 0.000000 0.000000 0.000000 0.000000 -43.953779 -16.362929 -19.021130 136.046221 -21.206398 -19.021130 -154.327268 -6.479803 17.633558 60.745168 -1.009775 -24.270510 -153.350642 -6.505711 -17.633558 2.386216 0.596153 4.755283
1151.529922 496.420240 126.110908 0.000000 0.000000 0.000000 0.000000 0.000000 0.000000 -116.362129 -3.757872 -16.886559 63.637871 1.493488 -16.886559 -149.081043 -0.373824 14.452610 35.941860 3.233775 -26.289200 -156.847177 -1.311942 -14.452610 2.056513 0.006883 4.842916
